<svg aria-hidden="true" style="position:absolute;width:0;height:0" xmlns="http://www.w3.org/2000/svg" overflow="hidden">
    <defs>
        <symbol id="close" viewBox="0 0 18 18" xmlns="http://www.w3.org/2000/svg">
            <path
                d="M15 4.108L13.892 3 9.5 7.392 5.108 3 4 4.108 8.392 8.5 4 12.892 5.108 14 9.5 9.608 13.892 14 15 12.892 10.608 8.5 15 4.108z" />
        </symbol>
        <symbol id="person" viewBox="0 0 18 18" xmlns="http://www.w3.org/2000/svg">
            <path
                d="M9 9a3 3 0 100-6 3 3 0 100 6zm0 1.5c-2.003 0-6 1.005-6 3v.75c0 .412.337.75.75.75h10.5c.412 0 .75-.338.75-.75v-.75c0-1.995-3.998-3-6-3z" />
        </symbol>
        <symbol id="phone-black" viewBox="0 0 18 18" xmlns="http://www.w3.org/2000/svg">
            <path
                d="M13.996 11.123l-1.838-.21a1.44 1.44 0 00-1.187.412l-1.332 1.332a10.888 10.888 0 01-4.769-4.77L6.21 6.55a1.44 1.44 0 00.412-1.187l-.21-1.824a1.448 1.448 0 00-1.44-1.28H3.72c-.818 0-1.498.68-1.448 1.497.384 6.18 5.327 11.116 11.5 11.5.817.05 1.498-.63 1.498-1.448v-1.252a1.434 1.434 0 00-1.274-1.432z" />
        </symbol>
        <symbol id="email" viewBox="0 0 18 18" xmlns="http://www.w3.org/2000/svg">
            <path
                d="M15 3H3c-.825 0-1.492.675-1.492 1.5l-.008 9c0 .825.675 1.5 1.5 1.5h12c.825 0 1.5-.675 1.5-1.5v-9c0-.825-.675-1.5-1.5-1.5zm-.3 3.188L9.398 9.502a.759.759 0 01-.796 0L3.3 6.188a.637.637 0 11.675-1.08L9 8.25l5.025-3.143a.637.637 0 11.675 1.08z" />
        </symbol>
        <symbol id="icon-check" viewBox="0 0 16 15" xmlns="http://www.w3.org/2000/svg">
            <path
                d="M3.957 7.752l-.069-.066-.069.065-.888.842-.076.072.076.073 3.496 3.334.069.066.069-.066 7.504-7.158.076-.073-.076-.072-.882-.841-.069-.066-.069.066-6.553 6.246-2.539-2.422z"
                fill="#fff" stroke="#fff" stroke-width=".2" />
        </symbol>
        <symbol id="icon-send" viewBox="0 0 24 24" xmlns="http://www.w3.org/2000/svg">
            <path d="M24 0L0 13.5l7.67 2.84L19.5 5.25l-8.998 12.14.007.002-.009-.002V24l4.301-5.018L20.251 21 24 0z"
                fill="#fff" />
        </symbol>
        <symbol id="icon-logo-1" viewBox="0 0 64 64">
            <path d="M10.88 0l9.354 8.855h26.093v24.701l9.354 8.855V0h-44.8z" />
            <path
                d="M3.2 8.482v41.2h43.52V33.305L20.51 8.492 3.2 8.482zm35.23 35.173H10.087V15.946h2.003v25.833h26.34v1.876zM15.732 57.323l1.047-2.156h.875l-1.525 2.875v1.675h-.794v-1.675l-1.528-2.875h.878l1.047 2.156zm4.494 1.335h-1.763l-.369 1.059h-.822l1.719-4.55h.709l1.722 4.55h-.825l-.372-1.059zm-1.54-.638h1.319l-.659-1.888-.659 1.888zm4.656.469c0-.21.057-.403.172-.578.115-.177.341-.386.678-.628a2.922 2.922 0 01-.372-.569 1.116 1.116 0 01-.103-.453c0-.356.108-.637.325-.844.217-.208.508-.312.875-.312.331 0 .602.098.813.294a.939.939 0 01.319.722c0 .19-.048.365-.144.525a1.714 1.714 0 01-.472.475l-.309.225.878 1.037c.127-.25.191-.528.191-.834h.659c0 .56-.131 1.02-.394 1.378l.669.791h-.881l-.256-.303c-.325.244-.712.366-1.163.366s-.81-.119-1.081-.356c-.269-.24-.403-.551-.403-.934zm1.506.684c.256 0 .496-.085.719-.256l-.994-1.172-.097.069c-.25.19-.375.406-.375.65 0 .21.068.381.203.513s.317.197.544.197zm-.419-2.931c0 .175.107.395.322.659l.347-.237.097-.078a.563.563 0 00.194-.441.4.4 0 00-.134-.303.472.472 0 00-.341-.128c-.148 0-.266.05-.353.15s-.131.226-.131.378zm8.266 1.994c-.046.485-.225.864-.538 1.138-.312.271-.728.406-1.247.406-.363 0-.682-.085-.959-.256-.275-.173-.487-.418-.637-.734s-.228-.684-.234-1.103v-.425c0-.429.076-.807.228-1.134s.37-.579.653-.756c.285-.177.615-.266.988-.266.502 0 .906.136 1.213.409s.484.658.534 1.156h-.788c-.038-.327-.133-.562-.288-.706-.152-.146-.376-.219-.672-.219-.344 0-.608.126-.794.378-.183.25-.277.618-.281 1.103v.403c0 .492.087.867.262 1.125.177.258.435.387.775.387.31 0 .544-.07.7-.209s.255-.372.297-.697h.788zm4.341-.675c0 .446-.077.837-.231 1.175a1.749 1.749 0 01-.663.775 1.817 1.817 0 01-.987.269c-.369 0-.698-.09-.987-.269a1.796 1.796 0 01-.669-.772 2.722 2.722 0 01-.237-1.153v-.256c0-.444.078-.835.234-1.175.158-.34.38-.599.666-.778.288-.181.617-.272.987-.272s.699.09.984.269c.288.177.509.433.666.769.156.333.236.722.238 1.166v.253zm-.791-.238c0-.504-.096-.891-.288-1.159-.19-.269-.459-.403-.809-.403a.934.934 0 00-.803.403c-.192.267-.29.645-.294 1.134v.262c0 .5.097.886.291 1.159a.945.945 0 00.813.409c.35 0 .619-.133.806-.4.19-.267.284-.656.284-1.169v-.237z" />
        </symbol>
        <symbol id="icon-logo-2" viewBox="0 0 64 64">
            <path
                d="M28.279 3.612h.168c.311 0 .648.031.981.059 1.468.103 2.925.323 4.359.657V.804a26.026 26.026 0 00-4.499-.717 36.16 36.16 0 00-1.818-.088h-.526a36.678 36.678 0 00-9.029 1.164 36.569 36.569 0 00-9.58 3.897v34.95a38.936 38.936 0 019.132-3.559 39.807 39.807 0 017.666-1.177h.103c.433-.022.866-.034 1.311-.038v-3.58a42.243 42.243 0 00-9.963 1.324 47.12 47.12 0 00-3.462 1.027l-1.245.422V7.178l.532-.257a34.789 34.789 0 0112.943-3.302.698.698 0 01.112 0c.495-.025.993-.038 1.482-.038h.56c.258.006.517.013.775.028z" />
            <path
                d="M37.059 7.302a31.628 31.628 0 01-5.212-.423 28.387 28.387 0 01-1.628-.329v34.549a27.55 27.55 0 006.85.807 36.825 36.825 0 009.029-1.161 36.671 36.671 0 009.583-3.897V2.521a39.132 39.132 0 01-9.129 3.562 38.733 38.733 0 01-9.493 1.218zm13.815.597l1.245-.419v27.26l-.532.257a34.152 34.152 0 01-6.367 2.288 33.093 33.093 0 01-8.148 1.055c-.822 0-1.638-.034-2.429-.103l-.853-.075V10.129l.993.066c.722.047 1.47.069 2.282.069a42.142 42.142 0 0010.346-1.327 55.097 55.097 0 003.462-1.036zM10.753 51.954a1.824 1.824 0 00-1.386-.56 2.05 2.05 0 00-.8.15 1.793 1.793 0 00-1.025 1.036 2.024 2.024 0 00-.143.773v4.67c-.011.329.052.656.184.958.11.239.269.453.467.626.187.157.406.27.641.332.227.064.462.096.697.097.26.003.517-.053.754-.163.233-.102.445-.249.623-.432.173-.181.312-.394.408-.626.1-.235.151-.489.149-.745v-.523h-1.22v.416c.004.142-.021.284-.072.416a.748.748 0 01-.178.263.88.88 0 01-.51.179.617.617 0 01-.573-.251 1.112 1.112 0 01-.162-.626V53.59a1.492 1.492 0 01.149-.698.619.619 0 01.598-.282.644.644 0 01.545.263c.137.179.208.4.202.626v.404h1.208v-.476a2.215 2.215 0 00-.149-.817 1.916 1.916 0 00-.408-.657zM18.005 51.9a2.169 2.169 0 00-1.389-.513 2.16 2.16 0 00-.729.131 1.916 1.916 0 00-1.118 1.036 2.161 2.161 0 00-.177.904v4.479a2.17 2.17 0 00.177.917c.11.241.272.454.473.626.187.173.406.307.645.394.233.086.48.13.729.131.249-.001.495-.045.729-.131.243-.088.467-.222.66-.394a1.91 1.91 0 00.461-.626c.125-.289.186-.602.177-.917v-4.479a2.19 2.19 0 00-.177-.904 2.018 2.018 0 00-.461-.654zm-.57 6.038a.797.797 0 01-.243.648.893.893 0 01-1.148 0 .805.805 0 01-.243-.648v-4.479a.797.797 0 01.243-.648.893.893 0 011.148 0 .805.805 0 01.243.648v4.479zM27.529 59.938V51.46h-1.174l-1.541 4.488h-.022l-1.554-4.488h-1.161v8.478h1.211V54.78h.022l1.186 3.646h.604l1.196-3.646h.022v5.158h1.211zM34.41 52.054a1.689 1.689 0 00-.685-.463 2.668 2.668 0 00-.878-.131h-1.8v8.478h1.208v-3.311h.623c.377.017.752-.063 1.09-.232.275-.153.504-.376.663-.648a2.02 2.02 0 00.277-.739 6.1 6.1 0 00.065-.964 4.834 4.834 0 00-.118-1.211 1.81 1.81 0 00-.445-.779zm-.623 2.585a1.055 1.055 0 01-.112.441.678.678 0 01-.311.297c-.179.08-.374.117-.57.106h-.551v-2.882h.623c.188-.009.374.027.545.106a.682.682 0 01.283.313c.066.149.102.31.106.473v.563c0 .197.012.401 0 .582h-.012zM40.133 51.459h-.99l-1.868 8.478h1.208l.355-1.822h1.647l.355 1.822h1.208l-1.915-8.478zm-1.115 5.502l.595-3.073h.022l.592 3.073h-1.208zM47.938 56.567h-.022l-1.825-5.108H44.93v8.478h1.208v-5.098h.025l1.846 5.098h1.136v-8.478h-1.208v5.108zM55.32 51.459l-.971 3.371h-.025l-.971-3.371h-1.28l1.659 4.895v3.584h1.208v-3.584l1.659-4.895h-1.28zM7.385 62.332h.582v1.634h.395v-1.634h.579v-.335H7.384v.335zM12.279 61.997l-.763 1.969h.42l.162-.447h.785l.168.447h.43l-.781-1.969h-.42zm-.062 1.189l.268-.729.268.729h-.536zM17.117 63.239h.455v.254a.756.756 0 01-.467.166.496.496 0 01-.417-.188.823.823 0 01-.146-.513c0-.438.19-.657.567-.657.099-.01.199.016.28.074s.14.142.165.239l.389-.075c-.084-.385-.361-.579-.834-.579a.988.988 0 00-.688.254.963.963 0 00-.283.757c-.012.269.079.533.252.739a.946.946 0 00.747.288c.308.009.607-.104.834-.313v-.776h-.853v.332zM22.059 61.997h-.398v1.969h1.379v-.335h-.981v-1.634zM26.237 61.997h-.398v1.969h.398v-1.969zM30.322 63.311l-.806-1.315h-.386v1.969h.37v-1.286l.791 1.286h.395v-1.969h-.364v1.315zM34.014 63.098h.981v-.335h-.981v-.432h1.056v-.335h-1.454v1.969h1.495v-.335h-1.096v-.532zM42.969 62.773h-.775v-.776h-.395v1.969h.395v-.861h.775v.861h.395v-1.969h-.395v.776zM46.683 63.098h.984v-.335h-.984v-.432h1.059v-.335h-1.454v1.969h1.491v-.335h-1.096v-.532zM51.721 63.099c.342-.053.517-.235.517-.548a.471.471 0 00-.193-.439 1.105 1.105 0 00-.576-.116h-.834v1.969h.395v-.823h.078a.533.533 0 01.246.044.41.41 0 01.14.144l.43.626h.473l-.24-.385a1.373 1.373 0 00-.436-.473zm-.399-.273h-.293v-.495h.311c.136-.011.272.005.402.047a.255.255 0 01.086.205.258.258 0 01-.105.196c-.13.04-.266.056-.402.047zM55.52 63.098h.981v-.335h-.981v-.432h1.059v-.335h-1.457v1.969h1.494v-.335H55.52v-.532z" />
        </symbol>
        <symbol id="icon-logo-3" viewBox="0 0 64 64">
            <path
                d="M10.933 62.206c.022.001.044.005.065.014s.039.021.054.037l.306.321c-.238.26-.532.468-.861.609a3.101 3.101 0 01-1.221.219 3.004 3.004 0 01-1.149-.204 2.495 2.495 0 01-1.424-1.466 3.206 3.206 0 01-.195-1.142c-.005-.391.066-.78.211-1.145a2.66 2.66 0 01.593-.89c.261-.251.574-.448.919-.58a3.307 3.307 0 011.183-.204c.376-.009.749.055 1.099.186.303.125.582.299.823.514l-.257.343a.274.274 0 01-.065.062.163.163 0 01-.103.026.239.239 0 01-.111-.036l-.138-.091-.191-.117a2.107 2.107 0 00-.257-.113 2.398 2.398 0 00-.804-.127 2.3 2.3 0 00-.85.153 1.913 1.913 0 00-.666.431 2.005 2.005 0 00-.433.686 2.5 2.5 0 00-.157.905c-.005.313.048.624.157.919.093.252.238.483.425.682.175.185.393.33.635.423a2.1 2.1 0 00.789.146c.156.002.312-.007.467-.029.252-.029.495-.113.708-.244.107-.067.208-.143.302-.226a.221.221 0 01.146-.058zM19.776 60.593c.005.387-.065.772-.207 1.134-.125.329-.321.629-.577.881s-.564.449-.905.578a3.423 3.423 0 01-2.328 0 2.653 2.653 0 01-.9-.58 2.6 2.6 0 01-.582-.89 3.223 3.223 0 010-2.273c.131-.331.328-.635.582-.894a2.65 2.65 0 01.9-.558 3.365 3.365 0 012.328 0c.34.132.648.329.903.58.252.254.449.553.578.879.142.365.212.752.207 1.142zm-.804 0a2.602 2.602 0 00-.146-.912 1.894 1.894 0 00-.41-.682 1.799 1.799 0 00-.647-.43 2.472 2.472 0 00-1.692 0 1.812 1.812 0 00-1.06 1.112 2.917 2.917 0 000 1.824c.086.252.227.485.413.682.18.186.401.332.647.427a2.532 2.532 0 001.692 0c.246-.095.467-.24.647-.427a1.94 1.94 0 00.41-.682c.103-.294.152-.602.146-.912zM25.81 61.549l.08.204c.031-.073.057-.139.088-.204a1.71 1.71 0 01.1-.201l1.956-3.388c.038-.058.073-.095.111-.106a.486.486 0 01.161-.018h.578v5.511h-.685v-4.052-.171a1.506 1.506 0 010-.19l-1.968 3.436c-.025.051-.065.095-.115.125s-.109.046-.168.046h-.111c-.06.001-.118-.015-.169-.045s-.09-.074-.115-.126l-2.025-3.458V63.336h-.662v-5.5h.578a.486.486 0 01.161.018.23.23 0 01.107.106l1.998 3.392c.039.063.073.129.099.197zM33.172 61.275v2.064h-.766v-5.504h1.707c.322-.006.644.035.953.12.248.067.478.184.674.343.17.149.301.334.383.54.09.224.135.464.13.704.003.241-.045.481-.142.704-.092.211-.233.4-.413.551a1.88 1.88 0 01-.678.365c-.298.091-.61.134-.923.128l-.926-.015zm0-.591h.926c.201.002.402-.026.593-.084.158-.051.304-.131.429-.237a.968.968 0 00.26-.365c.063-.147.094-.304.092-.463.009-.153-.017-.306-.077-.448s-.151-.271-.268-.376a1.532 1.532 0 00-1.03-.295h-.926v2.269zM43.462 63.347h-.605a.274.274 0 01-.169-.051.338.338 0 01-.1-.128l-.521-1.331h-2.615l-.54 1.331a.298.298 0 01-.096.124.272.272 0 01-.172.055h-.605l2.297-5.511h.796l2.328 5.511zm-3.79-2.046h2.159l-.911-2.243a3.834 3.834 0 01-.172-.518l-.088.288a2.612 2.612 0 01-.084.233l-.903 2.24zM46.77 57.861a.333.333 0 01.115.099l3.35 4.154v-.193-4.085h.685v5.511h-.383a.341.341 0 01-.157-.033.433.433 0 01-.123-.102l-3.346-4.151c.004.063.004.126 0 .19v4.096h-.685v-5.511h.406a.329.329 0 01.138.026zM56.562 61.155v2.188h-.766v-2.188l-2.117-3.319h.685a.261.261 0 01.165.047.437.437 0 01.103.124l1.325 2.141a2.448 2.448 0 01.234.488l.1-.237a2 2 0 01.13-.252l1.305-2.156a.585.585 0 01.1-.117.242.242 0 01.165-.055h.693l-2.121 3.334zM25.431 48.587c.333.04.67.073 1.011.102 5.166-2.202 9.535-5.805 12.563-10.36s4.58-9.858 4.461-15.249l-5.693-5.424c1.157 5.739.616 11.671-1.564 17.134S30.297 45.029 25.43 48.586z" />
            <path
                d="M23.398 48.335l.153.029c5.201-3.544 9.166-8.493 11.382-14.207s2.583-11.93 1.052-17.845l-8.108-7.725c3.28 6.35 4.6 13.456 3.807 20.492s-3.666 13.714-8.286 19.256zM50.897 29.449c-1.377 5.923-4.723 11.264-9.54 15.231a30.049 30.049 0 01-4.533 3.1c3.922-1.098 7.528-3.04 10.538-5.676s5.345-5.895 6.824-9.526l-3.289-3.129z" />
            <path
                d="M49.606 28.577l-4.682-4.461c-.089 5.086-1.607 10.056-4.395 14.394s-6.744 7.885-11.458 10.273h.023c1.05 0 2.1-.06 3.143-.179 4.405-1.713 8.297-4.438 11.328-7.933s5.106-7.65 6.041-12.095zM24.075 5.329L18.489 0C13.496 1.838 9.201 5.07 6.168 9.272s-4.665 9.179-4.68 14.279c.019 5.635 2.01 11.104 5.658 15.54s8.745 7.586 14.483 8.952c5.123-5.947 8.122-13.294 8.562-20.976S28.489 11.77 24.075 5.328zM62.512 27.757c-.02-6.686-2.817-13.093-7.779-17.821S43.046 2.544 36.028 2.524a27.384 27.384 0 00-9.483 1.681l34.198 32.582a23.92 23.92 0 001.769-9.031z" />
        </symbol>
        <symbol id="icon-logo-4" viewBox="0 0 80 43" xmlns="http://www.w3.org/2000/svg">
            <path
                d="M12.402 12.83h-.003c-2.262 0-4.096 1.788-4.096 3.992v.003c0 2.204 1.834 3.992 4.096 3.992h.003c2.262 0 4.096-1.788 4.096-3.992v-.003c0-2.204-1.834-3.991-4.096-3.991zM42.637 11.555c-.007-3.063-1.258-5.997-3.48-8.163C36.938 1.227 33.926.007 30.784 0c-3.143.006-6.156 1.225-8.379 3.39-2.223 2.166-3.474 5.102-3.48 8.165V28.44s23.71-2.573 23.713-16.883v-.002zM0 33.982a7.96 7.96 0 002.422 5.68 8.384 8.384 0 005.827 2.362 8.384 8.384 0 005.826-2.361 7.96 7.96 0 002.423-5.678v-11.75S0 24.029 0 33.983zm8.25 2.105a2.2 2.2 0 01-1.201-.354 2.117 2.117 0 01-.796-.945 2.055 2.055 0 01-.123-1.216c.084-.409.29-.784.592-1.078a2.178 2.178 0 011.106-.576c.419-.082.853-.04 1.248.12.395.159.732.429.97.775a2.067 2.067 0 01.201 1.977c-.108.257-.267.49-.467.686-.201.196-.44.352-.702.458a2.21 2.21 0 01-.829.161v-.008zM25.09 34.781h-1.688v1.743h-.88V32.26H25.3v.712h-1.898v1.101h1.687v.71zm4.224-.293c0 .42-.075.788-.223 1.105-.148.316-.361.56-.639.732a1.755 1.755 0 01-.949.258 1.694 1.694 0 01-1.59-.981 2.511 2.511 0 01-.232-1.09V34.3c0-.42.075-.79.226-1.108.152-.32.366-.565.641-.735.277-.172.594-.258.95-.258.355 0 .67.086.946.258.277.17.49.415.641.735.152.319.229.687.229 1.105v.19zm-.89-.193c0-.447-.081-.787-.241-1.02a.783.783 0 00-.686-.348.782.782 0 00-.682.346c-.16.228-.242.564-.244 1.007v.208c0 .436.08.774.24 1.014.16.24.391.36.692.36a.775.775 0 00.68-.345c.158-.233.238-.57.24-1.014v-.208zm3.74 1.11a.447.447 0 00-.176-.38c-.117-.09-.328-.184-.632-.282a4.56 4.56 0 01-.724-.293c-.484-.262-.727-.614-.727-1.057 0-.23.065-.436.194-.616.13-.181.317-.323.56-.425.244-.101.517-.152.82-.152.304 0 .576.056.814.167.239.11.423.265.554.466.133.201.2.43.2.686h-.88c0-.196-.061-.347-.184-.454-.123-.11-.296-.165-.519-.165-.215 0-.382.046-.5.138a.426.426 0 00-.18.358c0 .138.07.254.208.348.141.094.347.182.619.264.5.15.864.337 1.092.56.229.222.343.5.343.831 0 .37-.14.66-.419.87-.28.21-.655.314-1.128.314-.328 0-.627-.06-.896-.179a1.439 1.439 0 01-.618-.495 1.27 1.27 0 01-.211-.726h.881c0 .47.282.706.844.706.21 0 .372-.042.49-.126a.418.418 0 00.175-.358zm4.69-2.434h-1.306v3.553h-.879v-3.553H33.38v-.712h3.475v.712zm3.071 1.705h-1.688v1.142h1.981v.706h-2.86V32.26h2.854v.712h-1.975v1.016h1.688v.689zm2.388.287h-.7v1.561h-.88V32.26h1.586c.503 0 .892.112 1.166.337.273.224.41.542.41.952 0 .29-.064.534-.19.73a1.282 1.282 0 01-.572.462l.923 1.743v.041h-.944l-.8-1.561zm-.7-.712h.709c.22 0 .391-.056.512-.167a.607.607 0 00.182-.466c0-.201-.058-.36-.173-.474-.113-.116-.288-.173-.524-.173h-.707v1.28zm5.326.77v1.503h-.88V32.26h1.665c.32 0 .601.058.844.176.244.117.431.284.562.5.131.215.196.46.196.736 0 .418-.143.748-.43.99-.285.24-.68.36-1.187.36h-.77zm0-.711h.785c.232 0 .41-.055.53-.165.123-.109.185-.265.185-.468a.704.704 0 00-.185-.507c-.123-.129-.293-.195-.51-.2h-.805v1.34zm5.56.366h-1.687v1.142h1.98v.706h-2.86V32.26h2.854v.712h-1.974v1.016h1.687v.689zm4.078-1.705h-1.306v3.553h-.88v-3.553h-1.288v-.712h3.474v.712zm3.07 1.705H57.96v1.142h1.98v.706h-2.859V32.26h2.854v.712H57.96v1.016h1.688v.689zm2.388.287h-.7v1.561h-.879V32.26h1.585c.504 0 .893.112 1.166.337.274.224.41.542.41.952 0 .29-.063.534-.19.73a1.282 1.282 0 01-.571.462l.923 1.743v.041h-.944l-.8-1.561zm-.7-.712h.71c.22 0 .39-.056.512-.167a.607.607 0 00.181-.466c0-.201-.057-.36-.172-.474-.114-.116-.288-.173-.525-.173h-.706v1.28zm5.165 1.154a.447.447 0 00-.175-.38c-.118-.09-.329-.184-.633-.282a4.565 4.565 0 01-.724-.293c-.484-.262-.727-.614-.727-1.057 0-.23.065-.436.194-.616.13-.181.317-.323.56-.425.243-.101.517-.152.82-.152.304 0 .576.056.814.167.238.11.423.265.554.466.133.201.2.43.2.686h-.88c0-.196-.061-.347-.184-.454-.123-.11-.296-.165-.519-.165-.215 0-.382.046-.5.138a.426.426 0 00-.18.358c0 .138.07.254.208.348.141.094.347.182.618.264.5.15.865.337 1.093.56.229.222.343.5.343.831 0 .37-.14.66-.419.87-.28.21-.655.314-1.128.314-.328 0-.627-.06-.896-.179a1.438 1.438 0 01-.618-.495 1.27 1.27 0 01-.211-.726h.882c0 .47.28.706.843.706.21 0 .372-.042.49-.126a.418.418 0 00.175-.358z" />
        </symbol>
        <symbol id="icon-logo-5" viewBox="0 0 64 64">
            <path
                d="M4.868 49.115c.249.31.382.698.375 1.096a1.733 1.733 0 01-.582 1.385 2.517 2.517 0 01-1.69.506H0v-6.948h2.911a2.48 2.48 0 011.613.462 1.593 1.593 0 01.565 1.3c.017.383-.103.76-.338 1.062a1.58 1.58 0 01-.886.543c.394.072.75.283 1.004.594zm-3.485-1.049h1.244c.283.021.564-.061.791-.231a.83.83 0 00.267-.679.844.844 0 00-.264-.679 1.197 1.197 0 00-.815-.234H1.382v1.823zm2.156 2.664a.857.857 0 00.294-.707.879.879 0 00-.301-.713 1.281 1.281 0 00-.845-.251H1.382v1.911h1.322c.297.017.592-.068.835-.241zM10.818 52.102l-1.619-2.715h-.608v2.715H7.198v-6.948h2.637a2.59 2.59 0 011.836.591 2.219 2.219 0 01.196 2.875c-.325.374-.77.624-1.258.706l1.724 2.776h-1.514zM8.59 48.44h1.139c.791 0 1.187-.351 1.187-1.052a1.04 1.04 0 00-.291-.781 1.231 1.231 0 00-.896-.282H8.576l.014 2.115zM18.431 50.703h-2.775l-.49 1.398h-1.46l2.549-6.87h1.579l2.539 6.87h-1.46l-.48-1.398zm-.372-1.052l-1.014-2.932-1.014 2.932h2.028zM27.96 52.102h-1.383l-3.1-4.725v4.725h-1.379v-6.948h1.379l3.1 4.752v-4.752h1.383v6.948zM35.85 50.439a2.985 2.985 0 01-1.251 1.225 4.062 4.062 0 01-1.944.438h-2.461v-6.948h2.461a4.132 4.132 0 011.944.428c.529.268.965.69 1.251 1.212a4.046 4.046 0 010 3.646zm-1.582-.167a2.551 2.551 0 000-3.316 2.401 2.401 0 00-1.731-.591h-.96v4.497h.96a2.393 2.393 0 001.731-.591zM19.296 6.508s17.846 6.764 17.467 16.553v16.556s-17.832-6.768-17.46-16.556l-.007-16.553zM52.662 35.742A24.388 24.388 0 0164 31.547v-5.183a23.283 23.283 0 00-11.338 9.378z" />
            <path
                d="M50.637 37.303A24.28 24.28 0 0164 25.278V10.344S38.585 19.98 39.123 33.92v23.572s1.133-.431 2.914-1.239c0-.754 0-1.514.081-2.278a24.522 24.522 0 018.519-16.672z" />
            <path
                d="M48.22 46.06c.133-1.635.431-3.252.889-4.826a22.824 22.824 0 00-5.382 14.239 74.082 74.082 0 004.888-2.586 24.464 24.464 0 01-.395-6.826zM49.231 46.145a23.456 23.456 0 00.314 6.181c6.944-4.171 14.746-10.617 14.445-18.406v-.679a22.748 22.748 0 00-13.211 6.198 23.29 23.29 0 00-1.548 6.707z" />
        </symbol>
        <symbol id="icon-logo-6" viewBox="0 0 89 46" xmlns="http://www.w3.org/2000/svg">
            <path
                d="M44.74 21.353a3.258 3.258 0 01-.57-2.057v-2.982c0-.915.19-1.61.567-2.085.378-.475 1.028-.712 1.949-.71.865 0 1.48.202 1.843.607.396.516.589 1.147.545 1.784v.7h-1.548v-.71a3.961 3.961 0 00-.045-.694.689.689 0 00-.221-.413.836.836 0 00-.561-.16.886.886 0 00-.59.17.81.81 0 00-.256.455c-.045.243-.065.49-.061.737v3.62a2 2 0 00.198 1.016.735.735 0 00.31.247.78.78 0 00.399.057.788.788 0 00.548-.164.747.747 0 00.23-.44c.037-.24.053-.483.049-.725v-.735h1.548v.67a2.914 2.914 0 01-.536 1.876c-.355.443-.961.664-1.852.664-.891 0-1.564-.236-1.946-.728zM51.186 21.384c-.391-.465-.587-1.141-.587-2.036V16.21c0-.886.196-1.556.587-2.011.39-.455 1.044-.682 1.961-.68.91 0 1.56.227 1.952.68.39.455.59 1.125.59 2.011v3.138c0 .886-.2 1.565-.596 2.033-.398.467-1.045.7-1.946.7-.9 0-1.567-.236-1.961-.697zm2.682-.753c.14-.29.204-.61.186-.928v-3.841a1.843 1.843 0 00-.183-.91.738.738 0 00-.316-.25.785.785 0 00-.408-.054.794.794 0 00-.41.054.749.749 0 00-.317.25c-.141.283-.205.596-.186.91v3.859c-.02.32.044.638.186.928a.96.96 0 00.326.23 1.009 1.009 0 00.796 0 .96.96 0 00.326-.23v-.018zM57.55 13.61h1.667l1.253 5.79 1.282-5.79h1.622l.163 8.356H62.34l-.128-5.807-1.238 5.807h-.961l-1.282-5.828-.119 5.828H57.4l.15-8.355zM65.406 13.61h2.596c1.495 0 2.243.791 2.243 2.373 0 1.515-.787 2.271-2.362 2.27H67v3.713h-1.603l.01-8.355zm2.218 3.571c.158.02.319.006.47-.04.153-.045.293-.122.411-.223.184-.283.265-.614.23-.944a2.854 2.854 0 00-.076-.758.63.63 0 00-.118-.23.67.67 0 00-.203-.168 1.528 1.528 0 00-.714-.133h-.622v2.496h.622zM72.556 13.61h1.721l1.766 8.356h-1.494l-.349-1.927h-1.535l-.359 1.927H70.79l1.766-8.355zm1.471 5.462l-.6-3.508-.599 3.508h1.2zM77.47 13.61h1.12l2.148 4.767V13.61h1.33v8.355h-1.067l-2.16-4.976v4.976h-1.375l.003-8.355zM85.183 18.78l-1.785-5.158h1.503l1.09 3.313 1.022-3.313h1.471l-1.762 5.158v3.186h-1.539V18.78zM47.215 25.619v.437h-1.308v3.395h-.548v-3.395h-1.314v-.437h3.17zM51.314 29.451h-.423a.176.176 0 01-.119-.036.196.196 0 01-.07-.088l-.378-.91H48.51l-.379.91a.257.257 0 01-.057.103.183.183 0 01-.119.036h-.423l1.603-3.832h.557l1.622 3.817zm-2.654-1.423h1.513l-.641-1.56a2.964 2.964 0 01-.119-.36l-.06.203-.058.16-.635 1.557zM54.077 29.075c.1.005.2.005.3 0 .087-.009.173-.024.257-.046a1.82 1.82 0 00.23-.07c.071-.027.142-.06.216-.093v-.862h-.641a.12.12 0 01-.087-.03.084.084 0 01-.032-.07v-.295h1.244v1.469a2.355 2.355 0 01-.677.312 2.653 2.653 0 01-.4.08 4.455 4.455 0 01-.468.024 2.252 2.252 0 01-.808-.143 1.935 1.935 0 01-.64-.4 1.849 1.849 0 01-.414-.607 2.074 2.074 0 01-.148-.795 2.155 2.155 0 01.145-.802c.092-.227.232-.433.413-.606.183-.173.401-.308.641-.398.274-.098.566-.146.859-.142.15 0 .298.01.445.033.13.02.258.052.382.097.112.04.22.09.32.152.099.06.192.127.28.2l-.155.237a.14.14 0 01-.052.052.15.15 0 01-.073.02.196.196 0 01-.1-.03 1.906 1.906 0 01-.156-.09 1.369 1.369 0 00-.215-.104 1.869 1.869 0 00-.295-.085 2.256 2.256 0 00-.407-.033 1.743 1.743 0 00-.618.106c-.179.068-.34.171-.471.303-.133.138-.235.3-.298.477a1.953 1.953 0 000 1.277c.07.18.179.345.32.482.132.132.291.235.468.304.204.066.42.092.635.076zM59.185 29.014h1.75v.437H58.65v-3.832h.548l-.013 3.395zM62.755 29.45h-.548V25.62h.548v3.832zM64.794 25.637a.27.27 0 01.083.07l2.343 2.889a.972.972 0 010-.137v-2.855h.477v3.847h-.275a.24.24 0 01-.119-.021.314.314 0 01-.086-.073l-2.34-2.885v2.979h-.458V25.62h.285c.031 0 .062.006.09.018zM71.732 25.619v.422H69.79v1.265h1.574v.406H69.79v1.308h1.942v.422h-2.506v-3.823h2.506zM14.303 1.954l24.335 6.541v22.922L14.305 24.88V1.954zM12.743 0v25.992l27.453 7.382V7.384L12.743 0z" />
            <path d="M27.456 45.44L0 38.052v-25.99l27.456 7.385V45.44z" />
            <path
                d="M13.198 1.66l24.017 6.459-10.214 9.672-24.02-6.462 10.217-9.67zM12.743 0L0 12.063l27.456 7.385 12.74-12.063L12.743 0zM29.001 43.978l11.195-10.6-11.195-3.013v13.613z" />
        </symbol>
        <symbol id="icon-antenna" viewBox="0 0 64 64">
            <path fill="var(--color3, #212121)"
                d="M61.546 44.196l-16.887-17.01 1.874-9.232c.45.181.971.288 1.516.292h.066a4.318 4.318 0 10-4.059-2.841l-.01-.03-9.92 1.211L17.945.32a1.06 1.06 0 00-.753-.32c-.28.002-.549.113-.747.311l-3.024 3.008a1.063 1.063 0 000 1.508l1.627 1.65c-2.286 4.125-3.631 9.044-3.631 14.278 0 8.211 3.312 15.649 8.672 21.05l-.002-.002c.086.082.185.147.293.195a5.972 5.972 0 00-.104 1.092v12.376h-12.8a5.34 5.34 0 00-5.335 5.333v2.133c0 .59.478 1.067 1.067 1.067h49.067c.589 0 1.066-.477 1.066-1.067v-2.133a5.34 5.34 0 00-5.333-5.333h-12.8v-5.484c2.005.421 4.048.635 6.097.64a29.57 29.57 0 0014.234-3.644l-.154.078 1.637 1.646c.197.202.469.317.752.32.28-.002.549-.113.747-.311l3.024-3.008a1.063 1.063 0 000-1.508zM46.56 12.466a2.133 2.133 0 111.504 3.645h-.007a2.133 2.133 0 01-1.493-3.645h-.004zm-2.512 7.008l-1.197 5.892-2.351-2.365 3.547-3.526zm-1.211-1.804l-3.84 3.818-2.971-2.987 6.811-.831zm5.171 39.93a3.2 3.2 0 013.2 3.2v1.067H4.275V60.8a3.2 3.2 0 013.2-3.2h40.533zm-14.933-4.267v2.134H22.408v-2.134h10.667zM22.408 51.2v-8.107c0-2.587 2.393-4.693 5.333-4.693s5.334 2.106 5.334 4.693V51.2H22.408zm12.8-3.392v-4.715c0-3.764-3.349-6.826-7.467-6.826l-.117-.001a7.594 7.594 0 00-6.427 3.542l-.018.031a27.633 27.633 0 01-7.623-19.1c0-4.628 1.133-8.992 3.138-12.828l-.073.153 37.204 37.417c-3.645 1.894-7.959 3.004-12.532 3.004-2.157 0-4.257-.247-6.272-.715l.186.036zm22.578-1.368L15.672 4.078l1.509-1.504 15.87 15.96c.007 0 .012.014.019.019l26.229 26.383-1.513 1.504z" />
            <path fill="var(--color2, #2196f3)"
                d="M27.751 40.533H27.737a3.2 3.2 0 00-.005 6.4H27.746a3.2 3.2 0 00.005-6.4zm.746 3.957a1.067 1.067 0 11-.756-1.823 1.066 1.066 0 01.747 1.822h.009z" />
        </symbol>
        <symbol id="icon-astronaut" viewBox="0 0 64 64">
            <path fill="var(--color2, #2196f3)"
                d="M63.948 9.048a1.07 1.07 0 00-.854-.724l-.006-.001-3.822-.556-1.71-3.462c-.358-.73-1.554-.73-1.912 0l-1.71 3.462-3.822.556a1.068 1.068 0 00-.593 1.819l2.767 2.696-.653 3.805c-.069.4.096.805.423 1.044.332.24.765.271 1.125.08l3.418-1.797 3.418 1.797a1.068 1.068 0 001.547-1.131l.001.006-.653-3.805 2.766-2.696a1.064 1.064 0 00.268-1.102l.002.008zm-4.925 2.655a1.065 1.065 0 00-.306.944l.381 2.228-2-1.051a1.066 1.066 0 00-1 .003l.006-.003-2 1.051.381-2.228a1.065 1.065 0 00-.305-.944l-1.621-1.579 2.238-.325a1.07 1.07 0 00.804-.584l1-2.026 1 2.026c.155.315.455.534.804.584l2.238.325-1.618 1.579zm-6.756 29.341h-2.133v2.134h2.133v-2.134zm0 4.268h-2.133v2.132h2.133v-2.132zm2.133-2.134h-2.133v2.133H54.4v-2.133zm-4.266 0H48v2.133h2.134v-2.133zm-5.334 9.6h-2.133v2.133H44.8v-2.133zm0 4.267h-2.133v2.133H44.8v-2.133zm2.134-2.133H44.8v2.133h2.134v-2.134zm-4.267 0h-2.134v2.133h2.134v-2.134zM32 48.512h-2.133v2.133H32v-2.134zm0 4.266h-2.133v2.133H32v-2.133zm2.133-2.134H32v2.134h2.133v-2.134zm-4.266 0h-2.134v2.134h2.134v-2.134zm-18.134-38.4H9.6v2.133h2.133v-2.133zm0 4.267H9.6v2.133h2.133v-2.132zm2.133-2.134h-2.133v2.134h2.133v-2.134zm-4.266 0H7.466v2.134H9.6v-2.134z" />
            <path fill="var(--color3, #212121)"
                d="M49.429 28.319a3.552 3.552 0 00-2.358-1.407l-.019-.002a3.538 3.538 0 00-2.687.71l.008-.006-2.506 1.919-3.795 2.834-2.715-1.082c4.842-2.172 8.227-7.016 8.227-12.64 0-7.646-6.245-13.867-13.922-13.867s-13.923 6.221-13.923 13.867c0 2.771.829 5.349 2.24 7.517l-5.537-.048c-.017 0-.031.009-.047.009a1.064 1.064 0 00-.318.065l.007-.002c-.026.009-.052.015-.077.026-.013.006-.026.006-.038.013l-6.466 3.192c-.001 0-.003 0-.003.002l-3.786 1.82a.87.87 0 00-.129.072l.003-.002a3.56 3.56 0 00-1.186 4.612l-.009-.02a3.568 3.568 0 002.087 1.77l.025.007c.321.105.691.166 1.075.166.616 0 1.196-.157 1.701-.432l-.019.009 2.776-1.476 4.528-2.339 2.714-.016L4.396 44.421c0 .002-.002.002-.003.003L1.716 47.09a3.287 3.287 0 00-.981 2.347v.01-.001a3.334 3.334 0 003.334 3.328h.005c.856 0 1.709-.325 2.361-.971l2.629-2.618 3.482-2.599 1.801 1.794-6.203 6.177a3.287 3.287 0 00-.981 2.347v.009c0 .89.347 1.727.981 2.358.603.599 1.434.97 2.352.97h.007c.855 0 1.71-.324 2.361-.97l8.976-8.944c.014-.013.032-.017.045-.031L32.216 38.98l6.942.987c.05.007.101.011.151.011.128 0 .253-.031.375-.077.035-.013.065-.03.099-.047.038-.019.079-.03.115-.055l6.426-4.266c.024-.016.037-.042.059-.059.026-.02.058-.028.081-.051l2.542-2.382a3.55 3.55 0 001.128-2.599c0-.8-.264-1.539-.71-2.133l.007.009zM4.261 35.54a1.41 1.41 0 01-1.126.1l.01.003a1.434 1.434 0 01-1.007-1.367c0-.471.227-.889.578-1.149l.004-.003 2.628-1.264.633 1.849.265.777-1.984 1.054zm6.994-3.655l-3.097 1.6-.51-1.493-.368-1.073 4.054-2.001-.08 2.968zm30.199-13.241c0 1.837-.439 3.569-1.198 5.119l-8.363-3.799a3.722 3.722 0 00-1.565-2.767l-.012-.008 2.928-9.722c4.754 1.513 8.208 5.949 8.208 11.176zm-23.578 0c0-6.47 5.288-11.734 11.789-11.734.506 0 1 .043 1.49.105l-2.864 9.506c-.038 0-.074-.012-.114-.012h-.002a3.743 3.743 0 00-3.743 3.733 3.744 3.744 0 003.744 3.733h.001c1.39 0 2.589-.766 3.237-1.889l7.726 3.509c-2.15 2.894-5.59 4.78-9.474 4.78-6.501 0-11.789-5.264-11.789-11.733zm11.913 1.6c0 .882-.724 1.6-1.613 1.6h-.003a1.608 1.608 0 01-1.608-1.6c0-.882.722-1.6 1.611-1.6s1.612.718 1.612 1.6zM4.929 50.292c-.22.218-.522.352-.856.352s-.635-.134-.854-.35a1.185 1.185 0 010-1.688l1.925-1.917 1.704 1.696-1.917 1.909zm6.427 7.467a1.213 1.213 0 01-1.71.002 1.185 1.185 0 010-1.688l1.925-1.918 1.703 1.695-1.919 1.911zm6.964-6.937l-.003.003-3.529 3.52-1.704-1.695 3.53-3.514c.08-.08.13-.176.179-.272.014-.027.04-.051.052-.08.033-.082.038-.171.051-.257.006-.049.027-.095.027-.146 0-.07-.026-.14-.04-.21-.013-.064-.013-.129-.038-.191a1.048 1.048 0 00-.184-.276l.001.001c-.02-.024-.027-.053-.049-.076h-.002s0-.003-.002-.005l-3.214-3.2c-.034-.034-.078-.048-.116-.077a1.023 1.023 0 00-.168-.112l-.005-.003a.974.974 0 00-.18-.063l-.007-.001a1 1 0 00-.203-.04h-.004l-.046-.001c-.051 0-.102.004-.151.011l.006-.001a1.078 1.078 0 00-.208.041c-.068.021-.127.055-.188.09-.04.022-.085.03-.122.058l-3.547 2.648-1.801-1.795 4.798-4.773 8.72 8.578-1.855 1.838zm13.638-14.034c-.031-.005-.06.007-.091.005l-.053-.001a.997.997 0 00-.183.016l.006-.001a.964.964 0 00-.373.14l.004-.002a1.08 1.08 0 00-.166.123c-.026.022-.057.033-.08.059l-9.395 10.291-8.656-8.513 5.666-5.637a1.068 1.068 0 00-.756-1.822h-.003l-4.438.026.056-3.215 6.208.053a13.86 13.86 0 009.957 4.202h.007c.875 0 1.728-.091 2.559-.245.08.064.159.128.259.169l4.82 1.92.304 1.517.357 1.771-6.006-.855zm8.082.357l-.626-3.116 2.893-2.16 1.893 2.513-4.16 2.763zm7.507-5.662l-1.675 1.57-1.862-2.472 1.662-1.274a1.466 1.466 0 011.086-.286A1.438 1.438 0 0148 30.441c0 .411-.174.782-.452 1.042l-.001.001z" />
            <path fill="var(--color3, #212121)"
                d="M27.205 37.088l-4.286-4.267a1.064 1.064 0 00-1.505 0l-4.285 4.267a1.068 1.068 0 000 1.512l4.284 4.267a1.064 1.064 0 001.506 0l4.286-4.267a1.064 1.064 0 000-1.512zm-5.038 3.518l-2.774-2.761 2.773-2.762 2.775 2.761-2.775 2.761zm12.162-30.465l-.516 2.072c.143.036 3.475.903 3.475 4.297h2.134c0-4.034-3.332-5.93-5.093-6.369zm5.093 8.503h-2.134v2.133h2.134v-2.133z" />
        </symbol>
        <symbol id="icon-clock" viewBox="0 0 64 64">
            <path fill="var(--color3, #212121)"
                d="M62.593 30.602C62.59 13.698 48.883-.004 31.977 0S1.371 13.711 1.375 30.616c.004 13.575 8.844 25.085 21.082 29.09l.216.061c.122.038.247.058.375.058.24 0 .476-.065.684-.187.271-.16.472-.414.567-.713l7.729-24.5a3.826 3.826 0 10-1.701-7.258l.022-.01-10.212-10.213a1.275 1.275 0 00-1.802 1.804l10.206 10.218a3.706 3.706 0 00-.383 1.651c0 1.203.566 2.274 1.447 2.961l.008.006-7.365 23.346C7.693 51.568.239 35.421 5.601 20.866S27.109-1.143 41.665 4.22C56.22 9.581 63.674 25.728 58.311 40.283c-2.69 7.163-8.006 12.812-14.748 15.876l-.176.072-.795-3.749a1.277 1.277 0 00-2.098-.686l.001-.001-7.674 6.852a1.276 1.276 0 00.452 2.166l.009.002 9.797 3.127a1.275 1.275 0 001.636-1.489l.002.008-.782-3.677c11.055-4.749 18.657-15.543 18.657-28.113v-.069.004zm-30.609-1.274a1.275 1.275 0 010 2.55 1.275 1.275 0 010-2.55zm4.201 29.728l4.368-3.897 1.206 5.68-5.574-1.784z" />
            <path fill="var(--color2, #2196f3)"
                d="M30.709 6.37v2.551a1.275 1.275 0 002.55 0V6.37a1.275 1.275 0 00-2.55 0zM7.752 29.328a1.275 1.275 0 000 2.55h2.551a1.275 1.275 0 000-2.55H7.752zm48.465 2.55a1.275 1.275 0 000-2.55h-2.551a1.275 1.275 0 000 2.55h2.551z" />
        </symbol>
        <symbol id="icon-diagram" viewBox="0 0 64 64">
            <path fill="var(--color2, #2196f3)"
                d="M29.851 29.929h2.132v9.595h-2.132v-9.595zm8.529 4.265h2.132v5.33H38.38v-5.33zm-17.058 3.198h2.132v2.132h-2.132v-2.132zm-6.396-1.067h2.132v3.198h-2.132v-3.198z" />
            <path fill="var(--color3, #212121)"
                d="M3.198 56.581h51.174a3.198 3.198 0 003.198-3.198v-4.264a3.198 3.198 0 00-3.198-3.198h-1.066V19.334l6.055-5.736a3.216 3.216 0 10-1.484-1.505l-.008-.02-4.562 4.325v-2.459a3.198 3.198 0 00-3.198-3.198H7.464a3.198 3.198 0 00-3.198 3.198v31.984H3.2a3.198 3.198 0 00-3.198 3.198v4.264A3.198 3.198 0 003.2 56.583zm57.57-46.908a1.066 1.066 0 110 2.132 1.066 1.066 0 110-2.132zM6.396 13.937c0-.589.477-1.066 1.066-1.066h42.645c.589 0 1.066.477 1.066 1.066v4.477l-2.132 2.026v-4.37c0-.59-.478-1.067-1.067-1.067H9.595c-.589 0-1.067.477-1.067 1.066v26.653c0 .589.478 1.066 1.067 1.066h38.379c.59 0 1.067-.477 1.067-1.066V23.373l2.132-2.021v24.567H6.396V13.937zm9.596 13.86h-.009a3.198 3.198 0 102.225 5.496l-.001.001 3.706 1.86c.431.215.953.114 1.273-.245l7.878-8.863 7.744 5.803c.416.311.996.278 1.372-.079l6.73-6.375v16.262H10.663V17.136H46.91v5.321L39.367 29.6l-7.808-5.854a1.068 1.068 0 00-1.437.142l-.001.001-7.985 8.986-2.985-1.493c.021-.128.035-.257.04-.387a3.198 3.198 0 00-3.198-3.198zm1.066 3.198a1.066 1.066 0 11-2.132 0 1.066 1.066 0 112.132 0zm6.396 17.058h10.661v1.066c0 .589-.476 1.066-1.065 1.066h-8.529a1.066 1.066 0 01-1.066-1.066v-1.066zM2.133 49.119c0-.589.476-1.066 1.065-1.066h18.124v1.066a3.198 3.198 0 003.198 3.198h8.529a3.198 3.198 0 003.198-3.198v-1.066h18.124c.589 0 1.066.477 1.066 1.066v4.264c0 .589-.477 1.066-1.066 1.066H3.198h-.001a1.066 1.066 0 01-1.066-1.066v-4.264z" />
        </symbol>
        <symbol id="icon-facebook" viewBox="0 0 64 64">
            <path
                d="M42.656 10.624h5.846V.448c-2.465-.286-5.321-.449-8.215-.449L39.974 0h.016c-8.426 0-14.198 5.299-14.198 15.04V24h-9.293v11.376h9.293V64H37.19V35.379h8.918l1.414-11.376H37.186V16.16c0-3.286.886-5.536 5.469-5.536z" />
        </symbol>
        <symbol id="icon-instagram" viewBox="0 0 64 64">
            <path
                d="M63.936 18.816c-.147-3.402-.698-5.738-1.485-7.763a15.69 15.69 0 00-3.7-5.674l-.003-.003a15.773 15.773 0 00-5.556-3.653l-.108-.037C51.046.899 48.722.352 45.321.201c-3.424-.163-4.512-.202-13.203-.202-8.688 0-9.776.038-13.19.189-3.398.147-5.738.698-7.76 1.485a15.68 15.68 0 00-5.677 3.7l-.003.003a15.779 15.779 0 00-3.65 5.556l-.037.108c-.79 2.038-1.338 4.362-1.488 7.763C.15 22.227.111 23.315.111 32.006c0 8.688.038 9.776.189 13.19.15 3.402.701 5.738 1.488 7.763a15.87 15.87 0 003.697 5.675l.002.002a15.738 15.738 0 005.664 3.686c2.038.79 4.365 1.341 7.763 1.488 3.414.15 4.502.189 13.19.189 8.691 0 9.779-.038 13.19-.189 3.402-.147 5.738-.698 7.763-1.485 4.315-1.7 7.666-5.052 9.328-9.255l.039-.111c.787-2.038 1.338-4.365 1.488-7.763.15-3.414.186-4.502.186-13.19s-.013-9.776-.16-13.19zm-5.76 26.131c-.141 3.126-.666 4.813-1.101 5.939-1.104 2.799-3.28 4.972-6.008 6.049l-.072.025c-1.12.438-2.822.963-5.936 1.101-3.376.15-4.387.189-12.928.189-8.538 0-9.565-.038-12.928-.189-3.126-.138-4.813-.662-5.939-1.101a9.892 9.892 0 01-3.671-2.385l-.002-.002a9.97 9.97 0 01-2.368-3.605L7.2 50.9c-.435-1.126-.96-2.826-1.098-5.939-.15-3.376-.189-4.39-.189-12.928 0-8.541.038-9.568.189-12.928.138-3.126.662-4.813 1.098-5.939a9.772 9.772 0 012.397-3.674l.003-.003a9.947 9.947 0 013.612-2.365l.068-.023c1.12-.438 2.822-.96 5.936-1.101 3.376-.147 4.39-.186 12.928-.186 8.55 0 9.565.038 12.928.186 3.126.138 4.813.662 5.939 1.101a9.842 9.842 0 013.674 2.387 9.989 9.989 0 012.39 3.68c.435 1.12.96 2.822 1.098 5.936.15 3.376.189 4.387.189 12.928 0 8.538-.038 9.536-.189 12.915z" />
            <path
                d="M32.118 15.565c-9.078.004-16.437 7.363-16.438 16.441.182 8.942 7.473 16.12 16.442 16.12s16.26-7.179 16.441-16.103v-.017c-.002-9.08-7.362-16.44-16.441-16.442zm0 27.104c-5.89-.001-10.664-4.776-10.664-10.666s4.775-10.666 10.666-10.666h.002c5.891 0 10.667 4.776 10.667 10.667s-4.776 10.667-10.667 10.667zM53.05 14.915a3.84 3.84 0 11-7.68 0 3.84 3.84 0 117.68 0z" />
        </symbol>
        <symbol id="icon-linkedin" viewBox="0 0 64 64">
            <path
                d="M63.984 64H64V40.525c0-11.482-2.474-20.326-15.894-20.326-6.454 0-10.784 3.539-12.554 6.899h-.186v-5.827h-12.73v42.726H35.89V42.842c0-5.571 1.056-10.96 7.955-10.96 6.797 0 6.896 6.358 6.896 11.315V64h13.242zM1.056 21.27h13.27V64H1.056V21.27zM7.686 0A7.686 7.686 0 000 7.686c0 4.24 3.443 7.757 7.686 7.757 4.24 0 7.683-3.514 7.683-7.757A7.689 7.689 0 007.686 0z" />
        </symbol>
        <symbol id="icon-mail" viewBox="0 0 16 12">
            <path
                d="M14.5 0H1.50001C0.672854 0 0 0.672853 0 1.50001V10.5C0 11.3271 0.672854 12 1.50001 12H14.5C15.3271 12 16 11.3271 16 10.5V1.50001C16 0.672853 15.3271 0 14.5 0ZM14.5 0.999994C14.5679 0.999994 14.6325 1.01409 14.6916 1.0387L8 6.83838L1.30833 1.0387C1.36742 1.01412 1.43204 0.999994 1.49998 0.999994H14.5ZM14.5 11H1.50001C1.22414 11 0.999996 10.7759 0.999996 10.5V2.09521L7.67236 7.87792C7.76661 7.95944 7.8833 7.99999 8 7.99999C8.1167 7.99999 8.23339 7.95948 8.32764 7.87792L15 2.09521V10.5C15 10.7759 14.7759 11 14.5 11Z" />
        </symbol>
        <symbol id="icon-smartphone" viewBox="0 0 10 16" xmlns="http://www.w3.org/2000/svg">
            <path
                d="M8.5 0H1.5C0.672848 0 0 0.672848 0 1.5V14.5C0 15.3272 0.672848 16 1.5 16H8.5C9.32715 16 10 15.3272 10 14.5V1.5C10 0.672848 9.32715 0 8.5 0ZM1.5 1H8.5C8.77588 1 9 1.22412 9 1.5V12H1V1.5C1 1.22412 1.22412 1 1.5 1ZM8.5 15H1.5C1.22412 15 1 14.7759 1 14.5V13H9V14.5C9 14.7759 8.77588 15 8.5 15Z" />
            <path
                d="M2.35355 13.7389C2.54882 13.9213 2.54882 14.2169 2.35355 14.3992C2.15828 14.5816 1.84172 14.5816 1.64645 14.3992C1.45118 14.2169 1.45118 13.9213 1.64645 13.7389C1.84172 13.5566 2.15828 13.5566 2.35355 13.7389Z" />
        </symbol>
        <symbol id="icon-twitter" viewBox="0 0 64 64">
            <path
                d="M64 12.157c-2.2.987-4.752 1.714-7.426 2.056l-.136.014c2.72-1.633 4.764-4.156 5.747-7.159l.026-.092c-2.395 1.445-5.182 2.546-8.152 3.146l-.168.028a13.085 13.085 0 00-9.574-4.151c-7.244 0-13.117 5.873-13.117 13.117v.008c0 1.04.086 2.042.304 2.992-10.909-.531-20.56-5.76-27.043-13.722a13.059 13.059 0 00-1.805 6.625v.002c0 4.544 2.342 8.573 5.827 10.902a12.91 12.91 0 01-5.988-1.646l.065.034v.144c.006 6.33 4.473 11.615 10.426 12.881l.086.015c-.997.273-2.143.429-3.325.429l-.122-.001h.006c-.838 0-1.686-.048-2.483-.224 1.699 5.197 6.522 9.018 12.259 9.139-4.43 3.491-10.091 5.6-16.245 5.6h-.025.001-.124c-1.063 0-2.11-.068-3.137-.199l.122.013c5.653 3.692 12.574 5.888 20.008 5.888h.127-.007c24.144 0 37.344-20 37.344-37.338 0-.576-.019-1.139-.048-1.696a26.408 26.408 0 006.517-6.709l.059-.094z" />
        </symbol>
    </defs>
</svg>